<?xml version="1.0" encoding="UTF-8" standalone="no"?>
<svg
   xmlns:dc="http://purl.org/dc/elements/1.1/"
   xmlns:cc="http://creativecommons.org/ns#"
   xmlns:rdf="http://www.w3.org/1999/02/22-rdf-syntax-ns#"
   xmlns:svg="http://www.w3.org/2000/svg"
   xmlns="http://www.w3.org/2000/svg"
   xmlns:sodipodi="http://sodipodi.sourceforge.net/DTD/sodipodi-0.dtd"
   xmlns:inkscape="http://www.inkscape.org/namespaces/inkscape"
   inkscape:version="1.0 (4035a4fb49, 2020-05-01)"
   height="130"
   width="130"
   sodipodi:docname="fox2.svg"
   id="svg5182"
   version="1.1"
   viewBox="0 0 130 130">
  <metadata
     id="metadata5186">
    <rdf:RDF>
      <cc:Work
         rdf:about="">
        <dc:format>image/svg+xml</dc:format>
        <dc:type
           rdf:resource="http://purl.org/dc/dcmitype/StillImage" />
        <dc:title></dc:title>
      </cc:Work>
    </rdf:RDF>
  </metadata>
  <sodipodi:namedview
     inkscape:document-rotation="0"
     inkscape:current-layer="svg5182"
     inkscape:window-maximized="0"
     inkscape:window-y="25"
     inkscape:window-x="1280"
     inkscape:cy="67.890379"
     inkscape:cx="72.05132"
     inkscape:zoom="4.6401846"
     fit-margin-bottom="0"
     fit-margin-right="0"
     fit-margin-left="0"
     fit-margin-top="0"
     showgrid="false"
     id="namedview5184"
     inkscape:window-height="1021"
     inkscape:window-width="1472"
     inkscape:pageshadow="2"
     inkscape:pageopacity="0"
     guidetolerance="10"
     gridtolerance="10"
     objecttolerance="10"
     borderopacity="1"
     bordercolor="#666666"
     pagecolor="#ffffff" />
  <defs
     id="defs5140">
    <linearGradient
       gradientTransform="matrix(1.6161946,0,0,1.6161946,0.53374,0.40728838)"
       gradientUnits="userSpaceOnUse"
       y2="62.785999"
       x2="7.7420001"
       y1="20.542999"
       x1="74.803001"
       id="a">
      <stop
         id="stop4973"
         stop-color="#3fe1b0"
         offset="0" />
      <stop
         id="stop4975"
         stop-color="#00b3f4"
         offset=".406" />
      <stop
         id="stop4977"
         stop-color="#03b0f4"
         offset=".421" />
      <stop
         id="stop4979"
         stop-color="#5561e9"
         offset=".818" />
      <stop
         id="stop4981"
         stop-color="#7542e5"
         offset="1" />
    </linearGradient>
    <radialGradient
       gradientUnits="userSpaceOnUse"
       gradientTransform="matrix(1.6161946,0,0,1.6161946,12889.686,13776.85)"
       r="80.796997"
       cy="-8515.1211"
       cx="-7907.187"
       id="b">
      <stop
         id="stop4984"
         stop-color="#3fe1b0"
         offset=".108" />
      <stop
         id="stop4986"
         stop-color="#3bdcb3"
         offset=".122" />
      <stop
         id="stop4988"
         stop-color="#1bb3d3"
         offset=".254" />
      <stop
         id="stop4990"
         stop-color="#0799e6"
         offset=".358" />
      <stop
         id="stop4992"
         stop-color="#0090ed"
         offset=".42" />
      <stop
         id="stop4994"
         stop-color="#2482f1"
         offset=".487" />
      <stop
         id="stop4996"
         stop-color="#7165fb"
         offset=".64" />
      <stop
         id="stop4998"
         stop-color="#9059ff"
         offset=".71" />
      <stop
         id="stop5000"
         stop-color="#7d49ed"
         offset=".795" />
      <stop
         id="stop5002"
         stop-color="#7542e5"
         offset=".86" />
    </radialGradient>
    <radialGradient
       gradientUnits="userSpaceOnUse"
       gradientTransform="matrix(1.6161946,0,0,1.6161946,12889.686,13776.85)"
       r="80.796997"
       cy="-8482.0889"
       cx="-7936.7109"
       id="c">
      <stop
         id="stop5005"
         stop-color="#45278d"
         offset=".3" />
      <stop
         id="stop5007"
         stop-opacity=".787"
         stop-color="#562896"
         offset=".341" />
      <stop
         id="stop5009"
         stop-opacity=".364"
         stop-color="#782aa9"
         offset=".43" />
      <stop
         id="stop5011"
         stop-opacity=".1"
         stop-color="#8d2bb5"
         offset=".495" />
      <stop
         id="stop5013"
         stop-opacity="0"
         stop-color="#952bb9"
         offset=".53" />
    </radialGradient>
    <radialGradient
       gradientUnits="userSpaceOnUse"
       gradientTransform="matrix(1.6161946,0,0,1.6161946,12889.686,13776.85)"
       r="58.534"
       cy="-8533.457"
       cx="-7926.9702"
       id="d">
      <stop
         id="stop5016"
         stop-color="#3fe1b0"
         offset=".132" />
      <stop
         id="stop5018"
         stop-color="#28d0c8"
         offset=".289" />
      <stop
         id="stop5020"
         stop-color="#00b3f4"
         offset=".526" />
    </radialGradient>
    <radialGradient
       gradientUnits="userSpaceOnUse"
       gradientTransform="matrix(1.6161946,0,0,1.6161946,12889.686,13776.85)"
       r="38.471001"
       cy="-8460.9844"
       cx="-7945.6479"
       id="e">
      <stop
         id="stop5023"
         stop-color="#0060df"
         offset=".287" />
      <stop
         id="stop5025"
         stop-color="#2357e1"
         offset=".417" />
      <stop
         id="stop5027"
         stop-color="#4f4ce3"
         offset=".604" />
      <stop
         id="stop5029"
         stop-color="#6b45e4"
         offset=".748" />
      <stop
         id="stop5031"
         stop-color="#7542e5"
         offset=".833" />
    </radialGradient>
    <radialGradient
       gradientUnits="userSpaceOnUse"
       gradientTransform="matrix(1.5709411,-0.37980573,0.44445351,1.8392294,16310.041,12661.349)"
       r="20.396999"
       cy="-8491.5459"
       cx="-7935.6201"
       id="f">
      <stop
         id="stop5034"
         stop-opacity="0"
         stop-color="#45278d"
         offset=".206" />
      <stop
         id="stop5036"
         stop-opacity=".055"
         stop-color="#44268a"
         offset=".251" />
      <stop
         id="stop5038"
         stop-opacity=".591"
         stop-color="#371f6f"
         offset=".725" />
      <stop
         id="stop5040"
         stop-opacity=".8"
         stop-color="#321c64"
         offset=".956" />
    </radialGradient>
    <radialGradient
       gradientUnits="userSpaceOnUse"
       gradientTransform="matrix(1.6161946,0,0,1.6161946,12889.686,13776.85)"
       r="0.62599999"
       cy="-8466.5225"
       cx="-7943.645"
       id="g">
      <stop
         id="stop5043"
         stop-color="#3a8ee6"
         offset=".353" />
      <stop
         id="stop5045"
         stop-color="#5c79f0"
         offset=".472" />
      <stop
         id="stop5047"
         stop-color="#9059ff"
         offset=".669" />
      <stop
         id="stop5049"
         stop-color="#c139e6"
         offset="1" />
    </radialGradient>
    <radialGradient
       gradientUnits="userSpaceOnUse"
       gradientTransform="matrix(1.5709411,-0.37980573,0.44445351,1.8392294,16298.647,12652.812)"
       r="0.22400001"
       cy="-8466.749"
       cx="-7943.48"
       id="h">
      <stop
         id="stop5052"
         stop-opacity="0"
         stop-color="#9059ff"
         offset=".206" />
      <stop
         id="stop5054"
         stop-opacity=".064"
         stop-color="#8c4ff3"
         offset=".278" />
      <stop
         id="stop5056"
         stop-opacity=".45"
         stop-color="#7716a8"
         offset=".747" />
      <stop
         id="stop5058"
         stop-opacity=".6"
         stop-color="#6e008b"
         offset=".975" />
    </radialGradient>
    <radialGradient
       gradientUnits="userSpaceOnUse"
       gradientTransform="matrix(1.6161946,0,0,1.6161946,12889.686,13776.85)"
       r="27.676001"
       cy="-8518.4268"
       cx="-7937.731"
       id="i">
      <stop
         id="stop5061"
         stop-color="#0df"
         offset="0" />
      <stop
         id="stop5063"
         stop-color="#00d6fd"
         offset=".235" />
      <stop
         id="stop5065"
         stop-color="#00c3f8"
         offset=".572" />
      <stop
         id="stop5067"
         stop-color="#00b3f4"
         offset=".792" />
    </radialGradient>
    <radialGradient
       gradientUnits="userSpaceOnUse"
       gradientTransform="matrix(1.6161946,0,0,1.6161946,12889.686,13776.85)"
       r="118.081"
       cy="-8535.9814"
       cx="-7915.9771"
       id="j">
      <stop
         id="stop5070"
         stop-color="#3fe1b0"
         offset=".126" />
      <stop
         id="stop5072"
         stop-color="#0df"
         offset=".429" />
      <stop
         id="stop5074"
         stop-color="#1ec1ff"
         offset=".479" />
      <stop
         id="stop5076"
         stop-color="#7077ff"
         offset=".624" />
      <stop
         id="stop5078"
         stop-color="#9059ff"
         offset=".69" />
      <stop
         id="stop5080"
         stop-color="#b833e1"
         offset=".904" />
    </radialGradient>
    <radialGradient
       gradientUnits="userSpaceOnUse"
       gradientTransform="matrix(0.16970043,1.6081135,-1.055375,0.11151743,-7569.7281,13689.884)"
       r="86.499001"
       cy="-8522.8594"
       cx="-7927.165"
       id="k">
      <stop
         id="stop5083"
         stop-color="#54ffbd"
         offset="0" />
      <stop
         id="stop5085"
         stop-color="#4cf3b8"
         offset=".095" />
      <stop
         id="stop5087"
         stop-color="#3fe1b0"
         offset=".197" />
      <stop
         id="stop5089"
         stop-color="#33d8bd"
         offset=".257" />
      <stop
         id="stop5091"
         stop-color="#12c0e1"
         offset=".369" />
      <stop
         id="stop5093"
         stop-color="#00b3f4"
         offset=".423" />
      <stop
         id="stop5095"
         stop-color="#0060df"
         offset=".737" />
    </radialGradient>
    <radialGradient
       gradientUnits="userSpaceOnUse"
       gradientTransform="matrix(1.6161946,0,0,1.6161946,12889.686,13776.85)"
       r="73.720001"
       cy="-8508.1758"
       cx="-7938.3828"
       id="l">
      <stop
         id="stop5098"
         stop-color="#3fe1b0"
         offset=".137" />
      <stop
         id="stop5100"
         stop-color="#0df"
         offset=".435" />
      <stop
         id="stop5102"
         stop-color="#1ec1ff"
         offset=".484" />
      <stop
         id="stop5104"
         stop-color="#7077ff"
         offset=".622" />
      <stop
         id="stop5106"
         stop-color="#9059ff"
         offset=".685" />
    </radialGradient>
    <radialGradient
       gradientUnits="userSpaceOnUse"
       gradientTransform="matrix(1.6161946,0,0,1.6161946,12889.686,13776.85)"
       r="80.685997"
       cy="-8503.8613"
       cx="-7918.9229"
       id="m">
      <stop
         id="stop5109"
         stop-color="#54ffbd"
         offset=".094" />
      <stop
         id="stop5111"
         stop-color="#41f7cc"
         offset=".242" />
      <stop
         id="stop5113"
         stop-color="#0fe3f3"
         offset=".543" />
      <stop
         id="stop5115"
         stop-color="#0df"
         offset=".626" />
    </radialGradient>
    <linearGradient
       gradientTransform="matrix(1.6161946,0,0,1.6161946,0.53374,0.40728838)"
       gradientUnits="userSpaceOnUse"
       y2="66.806"
       x2="15.267"
       y1="12.061"
       x1="70.013"
       id="n">
      <stop
         id="stop5118"
         stop-opacity=".8"
         stop-color="#54ffbd"
         offset=".167" />
      <stop
         id="stop5120"
         stop-opacity=".639"
         stop-color="#43f8ca"
         offset=".236" />
      <stop
         id="stop5122"
         stop-opacity=".368"
         stop-color="#27ede1"
         offset=".361" />
      <stop
         id="stop5124"
         stop-opacity=".169"
         stop-color="#12e4f1"
         offset=".466" />
      <stop
         id="stop5126"
         stop-opacity=".046"
         stop-color="#05dffb"
         offset=".545" />
      <stop
         id="stop5128"
         stop-opacity="0"
         stop-color="#0df"
         offset=".589" />
    </linearGradient>
    <linearGradient
       gradientUnits="userSpaceOnUse"
       y2="72"
       x2="203.22"
       y1="72"
       x1="75.657997"
       id="o">
      <stop
         id="stop5131"
         stop-color="#005e5e"
         offset=".002" />
      <stop
         id="stop5133"
         stop-color="#0250bb"
         offset=".478" />
      <stop
         id="stop5135"
         stop-color="#253ba3"
         offset=".735" />
      <stop
         id="stop5137"
         stop-color="#45278d"
         offset="1" />
    </linearGradient>
  </defs>
  <path
     style="fill:url(#a);stroke-width:1.61619"
     inkscape:connector-curvature="0"
     id="path5142"
     d="m 123.22878,43.771406 c -2.72167,-6.54882 -8.2426,-13.619671 -12.56592,-15.854869 a 65.077692,65.077692 0 0 1 6.34356,19.012913 l 0.0114,0.105054 C 109.93558,29.377577 97.925629,22.25824 88.116942,6.7557007 87.620771,5.9718463 87.124599,5.1863757 86.641357,4.357268 86.364987,3.8837229 86.143569,3.4570476 85.951241,3.0643123 A 11.399021,11.399021 0 0 1 85.01708,0.58345359 0.16161946,0.16161946 0 0 0 84.874856,0.42183413 a 0.22303486,0.22303486 0 0 0 -0.117982,0 c -0.0081,0 -0.02101,0.0145457 -0.03071,0.0177781 -0.0097,0.003232 -0.03071,0.0177781 -0.04525,0.0242429 l 0.02424,-0.0420211 C 68.971501,9.6341433 63.63321,26.68823 63.141887,35.218505 A 31.333165,31.333165 0 0 0 45.903555,41.86268 18.726847,18.726847 0 0 0 44.28736,40.637605 29.039785,29.039785 0 0 1 44.111195,25.327394 46.392867,46.392867 0 0 0 29.033715,36.980156 h -0.02909 c -2.482474,-3.14673 -2.307924,-13.5227 -2.165699,-15.690016 a 11.196997,11.196997 0 0 0 -2.091356,1.110325 45.617093,45.617093 0 0 0 -6.122146,5.244551 54.700106,54.700106 0 0 0 -5.855473,7.025599 v 0.0097 -0.01132 A 52.902898,52.902898 0 0 0 4.3657374,53.647972 l -0.084042,0.413746 C 4.1637132,54.61284 3.738654,57.3733 3.6659253,57.972909 c 0,0.04687 -0.00969,0.0905 -0.014546,0.137376 a 59.697381,59.697381 0 0 0 -1.0165861,8.635327 v 0.32324 A 62.642086,62.642086 0 0 0 127.00744,77.661391 c 0.10506,-0.808097 0.19071,-1.608114 0.28445,-2.424291 A 64.416668,64.416668 0 0 0 123.22878,43.771406 Z M 51.033357,92.803518 c 0.292531,0.140609 0.567284,0.292532 0.867896,0.426676 l 0.04364,0.02748 Q 51.489124,93.039483 51.033357,92.803518 Z M 65.381933,55.023353 Z m 51.640647,-7.974304 v -0.0598 l 0.0114,0.06626 z" />
  <path
     style="fill:none;stroke-width:1.61619"
     inkscape:connector-curvature="0"
     id="path5144"
     d="m 117.02582,47.055514 -0.0114,-0.06626 v 0.0598 z" />
  <path
     style="fill:url(#b);stroke-width:1.61619"
     inkscape:connector-curvature="0"
     id="path5146"
     d="m 123.22878,43.771406 c -2.72167,-6.54882 -8.2426,-13.619671 -12.56592,-15.854869 a 65.077692,65.077692 0 0 1 6.34356,19.012913 v 0.0598 l 0.0114,0.06626 a 56.728431,56.728431 0 0 1 -1.94913,42.276418 C 107.88947,104.73588 90.512142,120.52449 63.311587,119.7568 33.921088,118.92446 8.0377316,97.115526 3.1988449,68.550902 c -0.880826,-4.504334 0,-6.788018 0.4428373,-10.448698 A 46.669235,46.669235 0 0 0 2.634793,66.745612 v 0.32324 A 62.642086,62.642086 0 0 0 127.00744,77.661391 c 0.10506,-0.808097 0.19071,-1.608114 0.28445,-2.424291 a 64.416668,64.416668 0 0 0 -4.06311,-31.465694 z" />
  <path
     style="fill:url(#c);stroke-width:1.61619"
     inkscape:connector-curvature="0"
     id="path5148"
     d="m 123.22878,43.771406 c -2.72167,-6.54882 -8.2426,-13.619671 -12.56592,-15.854869 a 65.077692,65.077692 0 0 1 6.34356,19.012913 v 0.0598 l 0.0114,0.06626 a 56.728431,56.728431 0 0 1 -1.94913,42.276418 C 107.88947,104.73588 90.512142,120.52449 63.311587,119.7568 33.921088,118.92446 8.0377316,97.115526 3.1988449,68.550902 c -0.880826,-4.504334 0,-6.788018 0.4428373,-10.448698 A 46.669235,46.669235 0 0 0 2.634793,66.745612 v 0.32324 A 62.642086,62.642086 0 0 0 127.00744,77.661391 c 0.10506,-0.808097 0.19071,-1.608114 0.28445,-2.424291 a 64.416668,64.416668 0 0 0 -4.06311,-31.465694 z" />
  <path
     style="fill:url(#d);stroke-width:1.61619"
     inkscape:connector-curvature="0"
     id="path5150"
     d="m 92.789361,51.134789 c 0.13576,0.09536 0.261824,0.190711 0.389503,0.286066 A 34.101706,34.101706 0 0 0 87.360563,43.832822 C 67.891883,24.360909 82.258237,1.6129695 84.680913,0.45739041 l 0.02424,-0.0355563 C 68.971501,9.6341433 63.63321,26.68823 63.141887,35.218505 c 0.73052,-0.0501 1.454575,-0.111517 2.201257,-0.111517 a 31.612767,31.612767 0 0 1 27.446217,16.027801 z" />
  <path
     style="fill:url(#e);stroke-width:1.61619"
     inkscape:connector-curvature="0"
     id="path5152"
     d="m 65.383549,55.023353 c -0.103437,1.558012 -5.608196,6.931859 -7.533084,6.931859 -17.81208,0 -20.703452,10.77517 -20.703452,10.77517 0.788702,9.073316 7.111256,16.5466 14.75424,20.499812 0.349098,0.181013 0.703045,0.34425 1.056992,0.504253 q 0.919614,0.407281 1.839229,0.753146 a 27.855114,27.855114 0 0 0 8.15047,1.572558 C 94.167975,97.524423 100.21578,58.726055 77.686022,47.467644 A 21.624684,21.624684 0 0 1 92.789361,51.134789 31.612767,31.612767 0 0 0 65.343144,35.106988 c -0.74345,0 -1.470737,0.06141 -2.201257,0.111517 A 31.333165,31.333165 0 0 0 45.903555,41.86268 c 0.955171,0.808098 2.033172,1.887716 4.303926,4.126146 4.250592,4.18756 15.151825,8.525426 15.176068,9.034527 z" />
  <path
     style="fill:url(#f);stroke-width:1.61619"
     inkscape:connector-curvature="0"
     id="path5154"
     d="m 65.383549,55.023353 c -0.103437,1.558012 -5.608196,6.931859 -7.533084,6.931859 -17.81208,0 -20.703452,10.77517 -20.703452,10.77517 0.788702,9.073316 7.111256,16.5466 14.75424,20.499812 0.349098,0.181013 0.703045,0.34425 1.056992,0.504253 q 0.919614,0.407281 1.839229,0.753146 a 27.855114,27.855114 0 0 0 8.15047,1.572558 C 94.167975,97.524423 100.21578,58.726055 77.686022,47.467644 A 21.624684,21.624684 0 0 1 92.789361,51.134789 31.612767,31.612767 0 0 0 65.343144,35.106988 c -0.74345,0 -1.470737,0.06141 -2.201257,0.111517 A 31.333165,31.333165 0 0 0 45.903555,41.86268 c 0.955171,0.808098 2.033172,1.887716 4.303926,4.126146 4.250592,4.18756 15.151825,8.525426 15.176068,9.034527 z" />
  <path
     style="fill:url(#g);stroke-width:1.61619"
     inkscape:connector-curvature="0"
     id="path5156"
     d="m 51.033357,92.803518 q 0.455767,0.234349 0.911534,0.454151 l -0.04364,-0.02748 c -0.295762,-0.134142 -0.575364,-0.286065 -0.867895,-0.426674 z" />
  <path
     style="fill:url(#h);stroke-width:1.61619"
     inkscape:connector-curvature="0"
     id="path5158"
     d="m 51.033357,92.803518 q 0.455767,0.234349 0.911534,0.454151 l -0.04364,-0.02748 c -0.295762,-0.134142 -0.575364,-0.286065 -0.867895,-0.426674 z" />
  <path
     style="fill:url(#i);stroke-width:1.61619"
     inkscape:connector-curvature="0"
     id="path5160"
     d="m 42.983091,39.779406 c 0.507485,0.323239 0.92608,0.604456 1.292956,0.858199 A 29.039785,29.039785 0 0 1 44.099882,25.327394 46.392867,46.392867 0 0 0 29.022402,36.980156 c 0.305461,-0.0081 9.391707,-0.171316 13.960689,2.79925 z" />
  <path
     style="fill:url(#j);stroke-width:1.61619"
     inkscape:connector-curvature="0"
     id="path5162"
     d="m 3.206926,68.550902 c 4.8340379,28.564624 30.722243,50.373558 60.112743,51.205898 27.200554,0.76931 44.577881,-15.02092 51.757021,-30.424868 a 56.728431,56.728431 0 0 0 1.94913,-42.276418 v -0.0598 c 0,-0.04687 -0.01,-0.07435 0,-0.0598 l 0.0113,0.105053 c 2.22233,14.508577 -5.15722,28.564621 -16.69362,38.069462 l -0.0356,0.08081 C 77.829863,103.49788 56.318313,96.236316 51.964285,93.272215 Q 51.508518,93.054029 51.052751,92.818064 C 37.947029,86.553693 32.532777,74.613248 33.693205,64.373039 A 16.085984,16.085984 0 0 1 18.854922,55.039515 23.625533,23.625533 0 0 1 41.884079,54.115052 31.192556,31.192556 0 0 0 65.402943,55.039515 C 65.3787,54.530414 54.477468,50.190931 50.226876,46.004988 47.956122,43.766558 46.87812,42.688556 45.922949,41.878842 A 18.726847,18.726847 0 0 0 44.306755,40.653767 C 43.93503,40.400024 43.516436,40.125272 43.0138,39.795568 38.444817,36.825002 29.358571,36.988237 29.057958,36.996318 h -0.02909 c -2.482474,-3.14673 -2.307924,-13.5227 -2.1657,-15.690016 a 11.196997,11.196997 0 0 0 -2.091355,1.110325 45.617093,45.617093 0 0 0 -6.122146,5.244552 54.700106,54.700106 0 0 0 -5.879716,7.009436 v 0.0097 -0.01132 A 52.902898,52.902898 0 0 0 4.3657374,53.647972 c -0.030708,0.127679 -2.2562078,9.857171 -1.1588114,14.90293 z" />
  <path
     style="fill:#ff4aa2;stroke-width:1.61619"
     inkscape:connector-curvature="0"
     id="path5164"
     d="m 65.383549,55.023353 h -0.0016 z" />
  <path
     style="fill:url(#k);stroke-width:1.61619"
     inkscape:connector-curvature="0"
     id="path5166"
     d="m 87.363795,43.832822 a 34.101706,34.101706 0 0 1 5.818301,7.596115 c 0.344249,0.260207 0.665872,0.518798 0.939009,0.769308 14.201515,13.091176 6.760545,31.596605 6.206185,32.913803 C 111.8637,75.607207 119.23678,61.551163 117.02097,47.042585 109.93558,29.377577 97.925629,22.25824 88.116942,6.7557007 87.620771,5.9718463 87.124599,5.1863757 86.641357,4.357268 86.364987,3.8837229 86.143569,3.4570476 85.951241,3.0643123 A 11.399021,11.399021 0 0 1 85.01708,0.58345359 0.16161946,0.16161946 0 0 0 84.874856,0.42183413 a 0.22303486,0.22303486 0 0 0 -0.117982,0 c -0.0081,0 -0.02101,0.0145457 -0.03071,0.0177781 -0.0097,0.003232 -0.03071,0.0177781 -0.04525,0.0242429 C 82.258237,1.6129695 67.891883,24.360909 87.363795,43.832822 Z" />
  <path
     style="fill:url(#l);stroke-width:1.61619"
     inkscape:connector-curvature="0"
     id="path5168"
     d="m 94.111408,52.190164 c -0.273137,-0.25051 -0.59476,-0.509101 -0.939009,-0.769309 -0.127679,-0.09536 -0.253743,-0.190711 -0.389503,-0.286066 A 21.624684,21.624684 0 0 0 77.679558,47.467644 C 100.20931,58.73252 94.164742,97.524423 62.941479,96.060151 a 27.855114,27.855114 0 0 1 -8.15047,-1.572558 Q 53.871394,94.143344 52.95178,93.734447 c -0.353947,-0.16162 -0.707894,-0.32324 -1.056992,-0.504253 l 0.04364,0.02748 c 4.354028,2.972182 25.859114,10.233736 48.343612,-8.080973 l 0.0356,-0.08081 c 0.56082,-1.309117 8.00178,-19.819395 -6.206188,-32.905722 z" />
  <path
     style="fill:url(#m);stroke-width:1.61619"
     inkscape:connector-curvature="0"
     id="path5170"
     d="m 37.147013,72.730382 c 0,0 2.891372,-10.77517 20.703452,-10.77517 1.924888,0 7.434495,-5.373847 7.533084,-6.931859 A 31.192556,31.192556 0 0 1 41.864684,54.09889 23.625533,23.625533 0 0 0 18.835528,55.023353 16.085984,16.085984 0 0 0 33.673811,64.356877 c -1.160429,10.241825 4.253823,22.182271 17.359546,28.445025 0.292531,0.140609 0.567284,0.292532 0.867896,0.426676 -7.649449,-3.951596 -13.965538,-11.42488 -14.75424,-20.498196 z" />
  <path
     style="fill:#ff4aa2;stroke-width:1.61619"
     inkscape:connector-curvature="0"
     id="path5172"
     d="m 80.467493,62.564517 -0.0016,0.0016 z" />
  <path
     style="fill:url(#n);stroke-width:1.61619"
     inkscape:connector-curvature="0"
     id="path5174"
     d="m 123.22878,43.771406 c -2.72167,-6.54882 -8.2426,-13.619671 -12.56592,-15.854869 a 65.077692,65.077692 0 0 1 6.34356,19.012913 l 0.0114,0.105054 C 109.93558,29.377577 97.925629,22.25824 88.116942,6.7557007 87.620771,5.9718463 87.124599,5.1863757 86.641357,4.357268 86.364987,3.8837229 86.143569,3.4570476 85.951241,3.0643123 A 11.399021,11.399021 0 0 1 85.01708,0.58345359 0.16161946,0.16161946 0 0 0 84.874856,0.42183413 a 0.22303486,0.22303486 0 0 0 -0.117982,0 c -0.0081,0 -0.02101,0.0145457 -0.03071,0.0177781 -0.0097,0.003232 -0.03071,0.0177781 -0.04525,0.0242429 l 0.02424,-0.0420211 C 68.971501,9.6341433 63.63321,26.68823 63.141887,35.218505 c 0.73052,-0.0501 1.454575,-0.111517 2.201257,-0.111517 A 31.612767,31.612767 0 0 1 92.789361,51.134789 21.624684,21.624684 0 0 0 77.686022,47.467644 C 100.21578,58.73252 94.171207,97.524423 62.947944,96.060151 a 27.855114,27.855114 0 0 1 -8.15047,-1.572558 q -0.919615,-0.344249 -1.839229,-0.753146 c -0.353947,-0.16162 -0.707894,-0.32324 -1.056992,-0.504253 l 0.04364,0.02748 q -0.455769,-0.218191 -0.911536,-0.454156 c 0.292531,0.140609 0.567284,0.292532 0.867896,0.426676 -7.649449,-3.953212 -13.965538,-11.426496 -14.75424,-20.499812 0,0 2.891372,-10.77517 20.703452,-10.77517 1.924888,0 7.434495,-5.373847 7.533084,-6.931859 -0.02424,-0.509101 -10.925476,-4.848584 -15.176068,-9.034527 -2.270754,-2.23843 -3.348755,-3.316432 -4.303926,-4.126146 A 18.726847,18.726847 0 0 0 44.28736,40.637605 29.039785,29.039785 0 0 1 44.111195,25.327394 46.392867,46.392867 0 0 0 29.033715,36.980156 h -0.02909 c -2.482474,-3.14673 -2.307924,-13.5227 -2.165699,-15.690016 a 11.196997,11.196997 0 0 0 -2.091356,1.110325 45.617093,45.617093 0 0 0 -6.122146,5.244551 54.700106,54.700106 0 0 0 -5.855473,7.025599 v 0.0097 -0.01132 A 52.902898,52.902898 0 0 0 4.3657374,53.647972 l -0.084042,0.413746 c -0.1179822,0.551122 -0.6464779,3.350371 -0.7224389,3.951595 0,0.04525 0,-0.04687 0,0 a 72.880679,72.880679 0 0 0 -0.9244634,8.732299 v 0.32324 A 62.642086,62.642086 0 0 0 127.00744,77.661391 c 0.10506,-0.808097 0.19071,-1.608114 0.28445,-2.424291 a 64.416668,64.416668 0 0 0 -4.06311,-31.465694 z m -6.21428,3.217844 0.0114,0.06626 z" />
</svg>
