<?xml version="1.0" encoding="UTF-8" standalone="no"?>
<svg
   xmlns:dc="http://purl.org/dc/elements/1.1/"
   xmlns:cc="http://creativecommons.org/ns#"
   xmlns:rdf="http://www.w3.org/1999/02/22-rdf-syntax-ns#"
   xmlns:svg="http://www.w3.org/2000/svg"
   xmlns="http://www.w3.org/2000/svg"
   xmlns:xlink="http://www.w3.org/1999/xlink"
   width="128"
   height="128"
   viewBox="0 0 33.866667 33.866667"
   version="1.1"
   id="svg2634">
  <title
     id="title3250">Boston Icons</title>
  <defs
     id="defs2628">
    <linearGradient
       xlink:href="#linearGradient1027"
       id="linearGradient1029"
       x1="99.48333"
       y1="170"
       x2="99.48333"
       y2="155.18333"
       gradientUnits="userSpaceOnUse"
       gradientTransform="translate(2.7000007e-7,1.292875e-5)" />
    <linearGradient
       id="linearGradient1027">
      <stop
         style="stop-color:#2d8cff;stop-opacity:1"
         offset="0"
         id="stop1023" />
      <stop
         style="stop-color:#2d8cff;stop-opacity:0"
         offset="1"
         id="stop1025" />
    </linearGradient>
  </defs>
  <metadata
     id="metadata2631">
    <rdf:RDF>
      <cc:Work
         rdf:about="">
        <dc:format>image/svg+xml</dc:format>
        <dc:type
           rdf:resource="http://purl.org/dc/dcmitype/StillImage" />
        <dc:title>Boston Icons</dc:title>
        <cc:license
           rdf:resource="dribbble.com/chrisdiaz" />
        <dc:creator>
          <cc:Agent>
            <dc:title>Christian Díaz</dc:title>
          </cc:Agent>
        </dc:creator>
        <dc:date>2019</dc:date>
        <dc:publisher>
          <cc:Agent>
            <dc:title>Christian Díaz</dc:title>
          </cc:Agent>
        </dc:publisher>
        <dc:identifier>christiandiaz.design [at] gmail [dot] com</dc:identifier>
        <dc:subject>
          <rdf:Bag>
            <rdf:li>GNOME icon Theme</rdf:li>
          </rdf:Bag>
        </dc:subject>
        <dc:description>diazchris.deviantart.com | dribbble.com/chrisdiaz</dc:description>
      </cc:Work>
    </rdf:RDF>
  </metadata>
  <g
     id="layer1"
     transform="translate(-82.550003,-136.13333)">
    <g
       id="g849">
      <path
         id="path957"
         d="m 83.608333,140.89583 h 12.170834 l 3.704166,2.64583 H 115.35833 V 166.825 l -31.749997,-10e-6 -10e-7,-25.4"
         style="fill:#00000f;stroke:none;stroke-width:0.26458335px;stroke-linecap:butt;stroke-linejoin:miter;stroke-opacity:1;fill-opacity:0.94117647" />
      <path
         id="path959"
         d="m 98.530836,143.54165 -3.016249,2.11668 H 83.608336 v 21.16665 h 31.750004 v -23.28333 z m 0.238125,0.52917 h 16.060209 v 22.225 H 84.137503 V 146.1875 H 95.77917 Z"
         style="fill:#000000;fill-opacity:1;stroke:none;stroke-width:0.26458335px;stroke-linecap:butt;stroke-linejoin:miter;stroke-opacity:1" />
      <path
         id="path845"
         d="m 84.137499,146.18751 h 11.641667 l 2.989795,-2.11667 h 16.060209 v 22.225 H 84.137499 Z"
         style="fill:#8b8c8d;fill-opacity:1;stroke:none;stroke-width:0.26458335px;stroke-linecap:butt;stroke-linejoin:miter;stroke-opacity:1" />
      <rect
         y="155.18333"
         x="84.137497"
         height="11.1125"
         width="30.691668"
         id="rect1005"
         style="opacity:0;fill:url(#linearGradient1029);fill-opacity:1;stroke:none;stroke-width:0.5291667;stroke-linejoin:bevel;stroke-miterlimit:4;stroke-dasharray:none;stroke-opacity:1" />
      <path
         id="path843"
         d="m 84.1375,141.42501 h 11.377086 l 3.042709,2.11666 -3.042709,2.11667 H 84.1375 Z"
         style="fill:#8b8c8d;fill-opacity:0.74456519;stroke:none;stroke-width:0.26458335px;stroke-linecap:butt;stroke-linejoin:miter;stroke-opacity:1" />
      <path
         id="path866"
         d="m 96.837499,149.89167 v 7.4135 a 2.6458337,2.6458337 0 0 0 -2.116666,-1.0635 2.6458337,2.6458337 0 0 0 -2.645834,2.64584 2.6458337,2.6458337 0 0 0 2.645834,2.64583 2.6458337,2.6458337 0 0 0 2.645833,-2.64583 v -6.87917 h 6.879154 v 5.29683 a 2.6458337,2.6458337 0 0 0 -2.11667,-1.0635 2.6458337,2.6458337 0 0 0 -2.645817,2.64584 2.6458337,2.6458337 0 0 0 2.645817,2.64583 2.6458337,2.6458337 0 0 0 2.64584,-2.64583 v -8.46667 -0.52917 h -7.408324 z m -2.116666,6.87917 a 2.1166669,2.1166669 0 0 1 2.116666,2.11667 2.1166669,2.1166669 0 0 1 -2.116666,2.11666 2.1166669,2.1166669 0 0 1 -2.116667,-2.11666 2.1166669,2.1166669 0 0 1 2.116667,-2.11667 z m 7.408317,0 a 2.1166668,2.1166668 0 0 1 2.11667,2.11667 2.1166668,2.1166668 0 0 1 -2.11667,2.11666 2.1166668,2.1166668 0 0 1 -2.11665,-2.11666 2.1166668,2.1166668 0 0 1 2.11665,-2.11667 z"
         style="opacity:1;fill:#000000;fill-opacity:1;stroke:none;stroke-width:0.5291667;stroke-linejoin:bevel;stroke-miterlimit:4;stroke-dasharray:none;stroke-opacity:1" />
    </g>
  </g>
</svg>
