<?xml version="1.0" encoding="UTF-8" standalone="no"?>
<svg
   xmlns:dc="http://purl.org/dc/elements/1.1/"
   xmlns:cc="http://creativecommons.org/ns#"
   xmlns:rdf="http://www.w3.org/1999/02/22-rdf-syntax-ns#"
   xmlns:svg="http://www.w3.org/2000/svg"
   xmlns="http://www.w3.org/2000/svg"
   xmlns:xlink="http://www.w3.org/1999/xlink"
   id="svg2634"
   version="1.1"
   viewBox="0 0 33.866667 33.866667"
   height="128"
   width="128">
  <title
     id="title3250">Boston Icons</title>
  <defs
     id="defs2628">
    <linearGradient
       gradientTransform="translate(2.7000007e-7,1.292875e-5)"
       gradientUnits="userSpaceOnUse"
       y2="155.18333"
       x2="99.48333"
       y1="170"
       x1="99.48333"
       id="linearGradient1029"
       xlink:href="#linearGradient1027" />
    <linearGradient
       id="linearGradient1027">
      <stop
         id="stop1023"
         offset="0"
         style="stop-color:#2d8cff;stop-opacity:1" />
      <stop
         id="stop1025"
         offset="1"
         style="stop-color:#2d8cff;stop-opacity:0" />
    </linearGradient>
  </defs>
  <metadata
     id="metadata2631">
    <rdf:RDF>
      <cc:Work
         rdf:about="">
        <dc:format>image/svg+xml</dc:format>
        <dc:type
           rdf:resource="http://purl.org/dc/dcmitype/StillImage" />
        <dc:title>Boston Icons</dc:title>
        <cc:license
           rdf:resource="dribbble.com/chrisdiaz" />
        <dc:creator>
          <cc:Agent>
            <dc:title>Christian Díaz</dc:title>
          </cc:Agent>
        </dc:creator>
        <dc:date>2019</dc:date>
        <dc:publisher>
          <cc:Agent>
            <dc:title>Christian Díaz</dc:title>
          </cc:Agent>
        </dc:publisher>
        <dc:identifier>christiandiaz.design [at] gmail [dot] com</dc:identifier>
        <dc:subject>
          <rdf:Bag>
            <rdf:li>GNOME icon Theme</rdf:li>
          </rdf:Bag>
        </dc:subject>
        <dc:description>diazchris.deviantart.com | dribbble.com/chrisdiaz</dc:description>
      </cc:Work>
    </rdf:RDF>
  </metadata>
  <g
     transform="translate(-82.550003,-136.13333)"
     id="layer1">
    <g
       id="g852">
      <path
         style="fill:#00000f;stroke:none;stroke-width:0.26458335px;stroke-linecap:butt;stroke-linejoin:miter;stroke-opacity:1;fill-opacity:0.94117647"
         d="m 83.608333,140.89583 h 12.170834 l 3.704166,2.64583 H 115.35833 V 166.825 l -31.749997,-10e-6 -10e-7,-25.4"
         id="path957" />
      <path
         style="fill:#00000f;fill-opacity:0.94117647;stroke:none;stroke-width:0.26458335px;stroke-linecap:butt;stroke-linejoin:miter;stroke-opacity:1"
         d="m 98.530836,143.54165 -3.016249,2.11668 H 83.608336 v 21.16665 h 31.750004 v -23.28333 z m 0.238125,0.52917 h 16.060209 v 22.225 H 84.137503 V 146.1875 H 95.77917 Z"
         id="path959" />
      <path
         style="fill:#e1b8b8;fill-opacity:1;stroke:none;stroke-width:0.26458335px;stroke-linecap:butt;stroke-linejoin:miter;stroke-opacity:1"
         d="m 84.137499,146.18751 h 11.641667 l 2.989795,-2.11667 h 16.060209 v 22.225 H 84.137499 Z"
         id="path845" />
      <rect
         style="opacity:0;fill:url(#linearGradient1029);fill-opacity:1;stroke:none;stroke-width:0.5291667;stroke-linejoin:bevel;stroke-miterlimit:4;stroke-dasharray:none;stroke-opacity:1"
         id="rect1005"
         width="30.691668"
         height="11.1125"
         x="84.137497"
         y="155.18333" />
      <path
         style="fill:#e1b8b8;fill-opacity:0.74619287;stroke:none;stroke-width:0.26458335px;stroke-linecap:butt;stroke-linejoin:miter;stroke-opacity:1"
         d="m 84.1375,141.42501 h 11.377086 l 3.042709,2.11666 -3.042709,2.11667 H 84.1375 Z"
         id="path843" />
      <path
         id="path869"
         style="fill:#00000f;fill-opacity:0.94117647;stroke:none;stroke-width:0.26458335px;stroke-linecap:butt;stroke-linejoin:miter;stroke-opacity:1"
         d="m 95.25,148.83333 h 6.08542 l 2.91041,2.91041 v 9.26043 h 0.52917 v -9.52501 l -3.175,-3.17499 h -6.35 z m 0.529166,9.525 h 6.350004 v 0.52917 h -6.350004 z m 0,-1.58749 h 3.175 V 157.3 h -3.175 z m 0,-1.58751 h 6.349994 v 0.52917 h -6.349994 z m 0,-1.5875 h 6.349994 v 0.52917 h -6.349994 z m 3.175003,-1.58749 h 0.529164 v 0.52916 h -0.529164 z m -3.175003,0 h 2.116666 v 0.52917 h -2.116666 z m 4.762504,-2.64584 v 3.175 h 3.175 v -0.52917 h -2.64584 v -2.64583 h -0.52916 m -6.35,-1e-5 v 12.7 h 9.525 v -10.05417 l -2.64583,-2.64583 z m 0.529167,0.52917 h 6.085413 l 2.38125,2.38125 v 9.26041 h -8.466663 z" />
    </g>
  </g>
</svg>
